<svg width="1117" height="294" viewBox="0 0 1117 294" fill="none" xmlns="http://www.w3.org/2000/svg">
<rect width="1117" height="294" fill="#005B99"/>
<path d="M924.849 201.758C924.849 208.837 918.88 214.576 911.518 214.576C904.156 214.576 898.188 208.837 898.188 201.758C898.188 194.679 904.156 188.94 911.518 188.94C918.88 188.94 924.849 194.679 924.849 201.758Z" fill="#E27A03"/>
<path d="M920.746 179.27C916.904 191.577 879.374 193.042 866.371 193.042C861.545 193.042 847.163 192.574 828.25 190.698C809.337 188.823 808.746 179.954 810.815 175.754C817.886 161.396 832.683 159.931 840.366 164.033C862.234 141.177 882.625 153.777 891.49 161.396C913.358 164.033 920.746 173.409 920.746 179.27Z" fill="#D9D9D9"/>
<path d="M842.458 253.631C856.895 245.826 894.956 234.899 931.711 253.631C977.654 277.047 795.344 279.176 842.458 253.631Z" fill="black"/>
<path d="M874.511 257.644C872.34 245.328 870.307 213.187 879.544 183.155C871.156 181.381 851.656 181.499 840.762 196.161C845.203 185.914 859.176 168.966 879.544 183.155L881.616 183.746C876.484 178.721 863.024 170.385 850.235 177.243C857.834 171.725 874.748 165.301 881.616 183.746C889.905 171.213 900.464 177.144 904.707 181.677C896.655 176.711 885.958 180.987 881.616 183.746L883.688 184.337C900.266 180.08 909.148 192.417 911.516 199.117C903.7 188.712 889.707 184.928 883.688 184.337C883.609 184.588 883.53 184.844 883.451 185.103C892.499 192.258 892.353 199.822 890.497 210.94C890.497 197.351 886.154 190.371 883.172 186.029C877.56 204.944 871.356 243.191 888.129 257.644H874.511Z" fill="black"/>
<path d="M879.544 183.155C870.307 213.187 872.34 245.328 874.511 257.644H888.129C870.84 242.746 877.964 202.565 883.688 184.337M879.544 183.155C871.156 181.381 851.656 181.499 840.762 196.161C845.203 185.914 859.176 168.966 879.544 183.155ZM879.544 183.155L881.616 183.746M883.688 184.337L881.616 183.746M883.688 184.337C889.707 184.928 903.7 188.712 911.516 199.117C909.148 192.417 900.266 180.08 883.688 184.337ZM881.616 183.746C876.484 178.721 863.024 170.385 850.235 177.243C857.834 171.725 874.748 165.301 881.616 183.746ZM881.616 183.746C885.958 180.987 896.655 176.711 904.707 181.677C900.464 177.144 889.905 171.213 881.616 183.746ZM881.616 183.746C884.28 187.884 890.497 194.683 890.497 210.94C892.471 199.117 892.51 191.313 881.616 183.746Z" stroke="black"/>
<path d="M915.725 256.618C917.236 247.674 918.65 224.334 912.224 202.525C918.06 201.237 931.624 201.323 939.203 211.97C936.114 204.528 926.393 192.221 912.224 202.525L910.783 202.954C914.353 199.305 923.716 193.252 932.613 198.232C927.327 194.225 915.561 189.56 910.783 202.954C905.016 193.853 897.671 198.16 894.719 201.452C900.321 197.845 907.762 200.951 910.783 202.954L909.341 203.384C897.809 200.292 891.63 209.251 889.983 214.116C895.42 206.56 905.154 203.813 909.341 203.384C909.396 203.566 909.451 203.752 909.507 203.94C903.212 209.136 903.314 214.629 904.605 222.703C904.605 212.834 907.626 207.765 909.701 204.612C913.604 218.348 917.92 246.123 906.252 256.618H915.725Z" fill="black"/>
<path d="M912.224 202.525C918.65 224.334 917.236 247.674 915.725 256.618H906.252C918.279 245.8 913.323 216.621 909.341 203.384M912.224 202.525C918.06 201.237 931.624 201.323 939.203 211.97C936.114 204.528 926.393 192.221 912.224 202.525ZM912.224 202.525L910.783 202.954M909.341 203.384L910.783 202.954M909.341 203.384C905.154 203.813 895.42 206.56 889.983 214.116C891.63 209.251 897.809 200.292 909.341 203.384ZM910.783 202.954C914.353 199.305 923.716 193.252 932.613 198.232C927.327 194.225 915.561 189.56 910.783 202.954ZM910.783 202.954C907.762 200.951 900.321 197.845 894.719 201.452C897.671 198.16 905.016 193.853 910.783 202.954ZM910.783 202.954C908.93 205.959 904.605 210.897 904.605 222.703C903.232 214.116 903.204 208.449 910.783 202.954Z" stroke="black"/>
<path d="M365.984 150.168C219.463 126.629 309.463 307.405 186.961 204.908C171.228 191.744 26.926 26.3295 100.993 40.9091C415.963 102.909 -40.9628 128.634 48.9605 182.407C104.961 215.895 545.007 178.928 365.984 150.168Z" fill="#004C80"/>
</svg>
