<svg width="1117" height="294" viewBox="0 0 1117 294" fill="none" xmlns="http://www.w3.org/2000/svg">
<rect width="1117" height="294" fill="#005B99"/>
<path d="M929.849 156.758C929.849 163.837 923.88 169.576 916.518 169.576C909.156 169.576 903.188 163.837 903.188 156.758C903.188 149.679 909.156 143.94 916.518 143.94C923.88 143.94 929.849 149.679 929.849 156.758Z" fill="#E27A03"/>
<path d="M925.746 134.27C921.904 146.577 884.374 148.042 871.371 148.042C866.545 148.042 852.163 147.574 833.25 145.698C814.337 143.823 813.746 134.954 815.815 130.754C822.886 116.396 837.683 114.931 845.366 119.033C867.234 96.1766 887.625 108.777 896.49 116.396C918.358 119.033 925.746 128.409 925.746 134.27Z" fill="white"/>
<path d="M847.458 208.631C861.895 200.826 899.956 189.899 936.711 208.631C982.654 232.047 800.344 234.176 847.458 208.631Z" fill="black"/>
<path d="M879.511 212.644C877.34 200.328 875.307 168.187 884.544 138.155C876.156 136.381 856.656 136.499 845.762 151.161C850.203 140.914 864.176 123.966 884.544 138.155L886.616 138.746C881.484 133.721 868.024 125.385 855.235 132.243C862.834 126.725 879.748 120.301 886.616 138.746C894.905 126.213 905.464 132.144 909.707 136.677C901.655 131.711 890.958 135.987 886.616 138.746L888.688 139.337C905.266 135.08 914.148 147.417 916.516 154.117C908.7 143.712 894.707 139.928 888.688 139.337C888.609 139.588 888.53 139.844 888.451 140.103C897.499 147.258 897.353 154.822 895.497 165.94C895.497 152.351 891.154 145.371 888.172 141.029C882.56 159.944 876.356 198.191 893.129 212.644H879.511Z" fill="black"/>
<path d="M884.544 138.155C875.307 168.187 877.34 200.328 879.511 212.644H893.129C875.84 197.746 882.964 157.565 888.688 139.337M884.544 138.155C876.156 136.381 856.656 136.499 845.762 151.161C850.203 140.914 864.176 123.966 884.544 138.155ZM884.544 138.155L886.616 138.746M888.688 139.337L886.616 138.746M888.688 139.337C894.707 139.928 908.7 143.712 916.516 154.117C914.148 147.417 905.266 135.08 888.688 139.337ZM886.616 138.746C881.484 133.721 868.024 125.385 855.235 132.243C862.834 126.725 879.748 120.301 886.616 138.746ZM886.616 138.746C890.958 135.987 901.655 131.711 909.707 136.677C905.464 132.144 894.905 126.213 886.616 138.746ZM886.616 138.746C889.28 142.884 895.497 149.683 895.497 165.94C897.471 154.117 897.51 146.313 886.616 138.746Z" stroke="black"/>
<path d="M920.725 211.618C922.236 202.674 923.65 179.334 917.224 157.525C923.06 156.237 936.624 156.323 944.203 166.97C941.114 159.528 931.393 147.221 917.224 157.525L915.783 157.954C919.353 154.305 928.716 148.252 937.613 153.232C932.327 149.225 920.561 144.56 915.783 157.954C910.016 148.853 902.671 153.16 899.719 156.452C905.321 152.845 912.762 155.951 915.783 157.954L914.341 158.384C902.809 155.292 896.63 164.251 894.983 169.116C900.42 161.56 910.154 158.813 914.341 158.384C914.396 158.566 914.451 158.752 914.507 158.94C908.212 164.136 908.314 169.629 909.605 177.703C909.605 167.834 912.626 162.765 914.701 159.612C918.604 173.348 922.92 201.123 911.252 211.618H920.725Z" fill="black"/>
<path d="M917.224 157.525C923.65 179.334 922.236 202.674 920.725 211.618H911.252C923.279 200.8 918.323 171.621 914.341 158.384M917.224 157.525C923.06 156.237 936.624 156.323 944.203 166.97C941.114 159.528 931.393 147.221 917.224 157.525ZM917.224 157.525L915.783 157.954M914.341 158.384L915.783 157.954M914.341 158.384C910.154 158.813 900.42 161.56 894.983 169.116C896.63 164.251 902.809 155.292 914.341 158.384ZM915.783 157.954C919.353 154.305 928.716 148.252 937.613 153.232C932.327 149.225 920.561 144.56 915.783 157.954ZM915.783 157.954C912.762 155.951 905.321 152.845 899.719 156.452C902.671 153.16 910.016 148.853 915.783 157.954ZM915.783 157.954C913.93 160.959 909.605 165.897 909.605 177.703C908.232 169.116 908.204 163.449 915.783 157.954Z" stroke="black"/>
<path d="M365.984 150.168C219.463 126.629 309.463 307.405 186.961 204.908C171.228 191.744 26.926 26.3295 100.993 40.9091C415.963 102.909 -40.9628 128.634 48.9605 182.407C104.961 215.895 545.007 178.928 365.984 150.168Z" fill="#004C80"/>
</svg>
