<svg width="749" height="107" viewBox="0 0 749 107" fill="none" xmlns="http://www.w3.org/2000/svg">
<path d="M52.6192 0.90357L98.2389 79.7291L7.16416 79.8242L52.6192 0.90357Z" fill="#0022FA"/>
<path d="M132.982 0.819585L178.602 79.6451L87.5274 79.7402L132.982 0.819585Z" fill="#0022FA"/>
<path d="M455.108 0.483059L500.811 79.3085L409.57 79.4038L455.108 0.483059Z" fill="#0022FA"/>
<path d="M293.9 0.651617L339.52 79.4771L248.445 79.5722L293.9 0.651617Z" fill="#0022FA"/>
<path d="M616.026 0.315091L661.729 79.1405L570.488 79.2358L616.026 0.315091Z" fill="#0022FA"/>
<path d="M213.152 0.736089L258.772 79.5616L167.697 79.6567L213.152 0.736089Z" fill="#0022FA"/>
<path d="M535.278 0.399563L580.981 79.225L489.74 79.3203L535.278 0.399563Z" fill="#0022FA"/>
<path d="M374.07 0.568121L419.69 79.3936L328.615 79.4887L374.07 0.568121Z" fill="#0022FA"/>
<path d="M696.293 0.231207L741.913 79.0567L650.838 79.1518L696.293 0.231207Z" fill="#0022FA"/>
</svg>
